<svg id="svg" version="1.1" viewBox="0 0 300 273.67021276595744" width="300" height="273.67021276595744" xmlns="http://www.w3.org/2000/svg"><svg xmlns="http://www.w3.org/2000/svg"><defs><clipPath id="clip-1"><rect x="0" y="0" transform="scale(0.19947,0.19947)" width="1504" height="1372" fill="none"/></clipPath></defs><g clip-path="url(#clip-1)" fill="none" fill-rule="nonzero" stroke="none" stroke-width="1" stroke-linecap="butt" stroke-linejoin="miter" stroke-miterlimit="10" stroke-dasharray="" stroke-dashoffset="0" font-family="none" font-weight="none" font-size="none" text-anchor="none" style="mix-blend-mode: normal"><path d="M11.6699,128.49335c-0.34949,-5.18537 0.70937,-7.71164 1.56592,-12.66263c0.39004,-2.25439 0.62338,-4.54747 1.10428,-6.83059c4.39314,-20.85578 14.1214,-41.87613 28.19447,-58.02846c18.2268,-20.92001 40.20818,-35.56516 67.14614,-42.94432c5.84402,-1.60089 12.37261,-2.6774 18.36463,-3.37921c2.90445,-0.34021 6.06941,-0.97322 8.95273,-1.15558c35.74009,-2.22401 70.91549,9.73035 97.90153,33.2708c26.33777,23.1357 42.4488,55.75332 44.81848,90.72926c0.41689,7.14016 0.15957,16.73896 0.16157,24.0381l0.02593,42.47134l0.02593,25.99129c0.00399,4.21077 0.21941,12.25332 -0.49468,16.0871c-1.32048,7.38032 -4.64561,14.25199 -9.61436,19.86503c-5.59309,6.28324 -11.74269,9.73005 -19.82513,11.82447c-2.35771,0.61037 -6.08378,1.64561 -8.43351,1.6496c-8.29987,0.01596 -86.70818,0.53856 -88.4256,-0.1137c-0.58504,-2.57314 -0.31935,-8.64096 -0.32314,-11.51729l-0.02134,-21.375l0.02653,-12.99136c0.00399,-2.05452 -0.10771,-5.26995 0.13105,-7.21277c0.16057,-24.05864 -0.05565,-38.12713 18.09535,-56.03019c7.99448,-7.99508 17.98225,-13.70585 28.92806,-16.53989c4.60372,-1.18025 17.94814,-2.04834 11.69481,-11.5857c-0.94747,-1.44275 -11.33378,-3.36742 -13.85146,-4.14036c-13.31749,-3.94668 -25.0512,-11.99242 -33.53198,-22.99289c-5.05971,-6.66922 -8.79714,-14.24481 -11.01044,-22.31828c-0.81483,-3.08697 -1.69767,-9.43464 -3.30578,-11.93976c-1.00273,-1.56184 -3.17972,-1.90871 -4.88617,-1.84967c-1.21576,0.04229 -2.63078,0.36742 -3.45997,1.32646c-2.11456,2.44588 -2.8488,9.99993 -3.98597,13.44335c-8.16981,24.74082 -25.23191,41.69182 -51.75259,44.55838c-8.37706,0.90539 -16.74914,0.76995 -25.1621,0.78251c-10.17247,0.06562 -20.34555,0.05725 -30.51802,-0.02513c-3.34807,-0.01536 -15.91807,0.25193 -18.53515,-0.40492z" fill="#5f6fff"/><path d="M152.95133,216.20944c0.46875,2.24402 0.31576,9.42088 0.29441,11.99402l-0.04887,17.48537l0.05426,15.76995c-0.0018,2.10838 0.09993,5.85239 -0.1129,7.84707c-0.58504,-2.57314 -0.31935,-8.64096 -0.32314,-11.51729l-0.02134,-21.375l0.02653,-12.99136c0.00399,-2.05452 -0.10771,-5.26995 0.13105,-7.21277z" fill="#5f6fff"/><path d="M13.92981,143.26875c4.97559,-0.34229 10.42324,0.26669 15.52245,-0.00279c9.25711,-0.4889 19.66277,0.25093 28.80419,0.17932c21.3732,-0.16735 43.57959,-1.0863 60.08198,15.04688c20.92879,18.88564 20.00824,36.23976 20.05971,62.40878l0.09156,23.14628l0.01476,14.48537c0.00439,1.86303 0.30658,10.0133 -0.63211,11.00465l-0.98737,-0.00997c-27.54953,0.48471 -55.46469,-0.24934 -82.98331,-0.05186c-20.00086,0.14362 -37.22469,-12.32314 -41.59141,-32.05053c-1.19809,-5.41157 -0.97925,-8.15226 -0.96822,-13.67952l0.02118,-17.10239l-0.01636,-39.00638c-0.00182,-7.79142 -0.11513,-15.88564 0.06016,-23.65691c0.74585,-0.13045 1.77421,-0.47992 2.52279,-0.7109z" fill="#5f6fff"/><path d="M264.47473,3.1658c6.98936,-1.25589 13.68152,3.3686 14.97806,10.35082c1.29654,6.98212 -3.28923,13.7008 -10.26263,15.03804c-7.03324,1.3482 -13.81915,-3.28344 -15.12566,-10.32337c-1.30851,-7.03993 3.36303,-13.7992 10.41024,-15.06549z" fill="#5f6fff"/></g></svg></svg>